<svg xmlns="http://www.w3.org/2000/svg" viewBox="0 0 512 512">
  <defs>
    <linearGradient id="sky" x1="0" y1="0" x2="0" y2="1">
      <stop offset="0" stop-color="#1a2027"/>
      <stop offset="0.62" stop-color="#0b0e14"/>
      <stop offset="1" stop-color="#06070b"/>
    </linearGradient>
  </defs>
  <rect width="512" height="512" rx="96" fill="url(#sky)"/>
  <!-- two eyes watching from the dark -->
  <circle cx="216" cy="150" r="9" fill="#f3efda" opacity="0.9"/>
  <circle cx="296" cy="150" r="9" fill="#f3efda" opacity="0.9"/>
  <!-- wheat field -->
  <g stroke="#d8b24f" stroke-width="14" stroke-linecap="round" fill="none">
    <path d="M120 452 Q116 360 128 290"/>
    <path d="M256 452 Q252 350 260 270"/>
    <path d="M392 452 Q388 360 396 290"/>
  </g>
  <g fill="#e6c768">
    <ellipse cx="122" cy="272" rx="16" ry="30"/>
    <ellipse cx="103" cy="296" rx="12" ry="22" transform="rotate(-25 103 296)"/>
    <ellipse cx="146" cy="296" rx="12" ry="22" transform="rotate(25 146 296)"/>
    <ellipse cx="258" cy="250" rx="17" ry="32"/>
    <ellipse cx="237" cy="276" rx="13" ry="24" transform="rotate(-25 237 276)"/>
    <ellipse cx="283" cy="276" rx="13" ry="24" transform="rotate(25 283 276)"/>
    <ellipse cx="392" cy="272" rx="16" ry="30"/>
    <ellipse cx="373" cy="296" rx="12" ry="22" transform="rotate(-25 373 296)"/>
    <ellipse cx="416" cy="296" rx="12" ry="22" transform="rotate(25 416 296)"/>
  </g>
</svg>
